# Blender v2.93.4 OBJ File: ''
# www.blender.org
mtllib arc.mtl
o arc
v 371.706146 -106.559998 244.552567
v 316.706146 -106.559998 182.454681
v 316.706146 -106.559998 244.552567
v 371.706146 -106.559998 182.454681
v 365.822479 -61.869083 245.454681
v 316.706146 -106.559998 245.454681
v 371.706146 -106.559998 245.454681
v 312.696533 -76.104134 245.454681
v 292.716461 -27.867941 245.454681
v 340.347870 -0.367942 245.454681
v 260.932739 13.553414 245.454681
v 299.823608 52.444286 245.454681
v 219.511383 45.337139 245.454681
v 171.275192 65.317223 245.454681
v 247.011383 92.968536 245.454681
v 119.511383 72.132057 245.454681
v -7.988619 92.968536 245.454681
v 53.512524 118.443146 245.454681
v 185.510239 118.443146 245.454681
v 119.511383 127.132057 245.454681
v -73.673782 -76.104134 245.454681
v -132.535690 -105.438248 245.454681
v -77.535690 -105.438248 245.454681
v -126.799706 -61.869083 245.454681
v -53.693699 -27.867941 245.454681
v -101.325096 -0.367942 245.454681
v -21.909975 13.553414 245.454681
v -60.800850 52.444286 245.454681
v 19.511381 45.337139 245.454681
v 67.747574 65.317223 245.454681
v -132.535690 -105.438248 182.454681
v -73.673782 -76.104134 182.454681
v -77.535690 -105.438248 182.454681
v -126.799706 -61.869083 182.454681
v -53.693699 -27.867941 182.454681
v -101.325096 -0.367942 182.454681
v -21.909975 13.553414 182.454681
v -60.800850 52.444286 182.454681
v 19.511381 45.337139 182.454681
v 67.747574 65.317223 182.454681
v -7.988619 92.968536 182.454681
v 119.511383 72.132057 182.454681
v 365.822479 -61.869083 182.454681
v 312.696533 -76.104134 182.454681
v 292.716461 -27.867941 182.454681
v 340.347870 -0.367942 182.454681
v 260.932739 13.553414 182.454681
v 299.823608 52.444286 182.454681
v 219.511383 45.337139 182.454681
v 171.275192 65.317223 182.454681
v 247.011383 92.968536 182.454681
v 53.512524 118.443146 182.454681
v 185.510239 118.443146 182.454681
v 119.511383 127.132057 182.454681
vn 0.0000 1.0000 0.0000
vn 0.0000 0.0000 1.0000
vn 0.0000 0.0000 -1.0000
vn -0.9914 -0.1305 0.0000
vn 0.0000 -1.0000 0.0000
vn 0.9914 0.1305 0.0000
vn 0.9239 0.3827 0.0000
vn 0.7934 0.6088 0.0000
vn 0.6088 0.7934 0.0000
vn 0.3827 0.9239 0.0000
vn 0.1305 0.9914 0.0000
vn -0.1305 0.9914 0.0000
vn -0.3827 0.9239 0.0000
vn -0.6088 0.7934 0.0000
vn -0.7934 0.6088 0.0000
vn -0.9239 0.3827 0.0000
vn -0.9914 0.1305 0.0000
vn 0.9914 -0.1305 0.0000
vn 0.9239 -0.3827 0.0000
vn 0.7934 -0.6088 0.0000
vn 0.6088 -0.7934 0.0000
vn 0.3827 -0.9239 0.0000
vn 0.1305 -0.9914 0.0000
vn -0.1305 -0.9914 0.0000
vn -0.3827 -0.9239 0.0000
vn -0.6088 -0.7934 0.0000
vn -0.7934 -0.6088 0.0000
vn -0.9239 -0.3827 0.0000
usemtl None
s off
f 1//1 2//1 3//1
f 2//1 1//1 4//1
f 5//2 6//2 7//2
f 6//2 5//2 8//2
f 8//2 5//2 9//2
f 9//2 5//2 10//2
f 9//2 10//2 11//2
f 11//2 10//2 12//2
f 11//2 12//2 13//2
f 13//2 12//2 14//2
f 14//2 12//2 15//2
f 14//2 15//2 16//2
f 16//2 15//2 17//2
f 17//2 15//2 18//2
f 18//2 15//2 19//2
f 18//2 19//2 20//2
f 21//2 22//2 23//2
f 22//2 21//2 24//2
f 24//2 21//2 25//2
f 24//2 25//2 26//2
f 26//2 25//2 27//2
f 26//2 27//2 28//2
f 28//2 27//2 29//2
f 28//2 29//2 30//2
f 28//2 30//2 17//2
f 17//2 30//2 16//2
f 31//3 32//3 33//3
f 32//3 31//3 34//3
f 32//3 34//3 35//3
f 35//3 34//3 36//3
f 35//3 36//3 37//3
f 37//3 36//3 38//3
f 37//3 38//3 39//3
f 39//3 38//3 40//3
f 40//3 38//3 41//3
f 40//3 41//3 42//3
f 2//3 43//3 4//3
f 43//3 2//3 44//3
f 43//3 44//3 45//3
f 43//3 45//3 46//3
f 46//3 45//3 47//3
f 46//3 47//3 48//3
f 48//3 47//3 49//3
f 48//3 49//3 50//3
f 48//3 50//3 51//3
f 51//3 50//3 42//3
f 51//3 42//3 41//3
f 51//3 41//3 52//3
f 51//3 52//3 53//3
f 53//3 52//3 54//3
f 44//4 6//4 8//4
f 6//4 44//4 3//4
f 3//4 44//4 2//4
f 1//5 6//5 3//5
f 6//5 1//5 7//5
f 1//6 5//6 7//6
f 5//6 1//6 43//6
f 43//6 1//6 4//6
f 43//7 10//7 5//7
f 10//7 43//7 46//7
f 46//8 12//8 10//8
f 12//8 46//8 48//8
f 12//9 51//9 15//9
f 51//9 12//9 48//9
f 15//10 53//10 19//10
f 53//10 15//10 51//10
f 19//11 54//11 20//11
f 54//11 19//11 53//11
f 20//12 52//12 18//12
f 52//12 20//12 54//12
f 18//13 41//13 17//13
f 41//13 18//13 52//13
f 17//14 38//14 28//14
f 38//14 17//14 41//14
f 38//15 26//15 28//15
f 26//15 38//15 36//15
f 36//16 24//16 26//16
f 24//16 36//16 34//16
f 34//17 22//17 24//17
f 22//17 34//17 31//17
f 33//5 22//5 31//5
f 22//5 33//5 23//5
f 33//18 21//18 23//18
f 21//18 33//18 32//18
f 32//19 25//19 21//19
f 25//19 32//19 35//19
f 35//20 27//20 25//20
f 27//20 35//20 37//20
f 39//21 27//21 37//21
f 27//21 39//21 29//21
f 40//22 29//22 39//22
f 29//22 40//22 30//22
f 42//23 30//23 40//23
f 30//23 42//23 16//23
f 50//24 16//24 42//24
f 16//24 50//24 14//24
f 49//25 14//25 50//25
f 14//25 49//25 13//25
f 47//26 13//26 49//26
f 13//26 47//26 11//26
f 47//27 9//27 11//27
f 9//27 47//27 45//27
f 45//28 8//28 9//28
f 8//28 45//28 44//28
