# Blender v2.93.4 OBJ File: 'finalhammer.blend'
# www.blender.org
mtllib finalhammer.mtl
o Cube
v 1.000000 1.000000 -1.000000
v 1.000000 -1.000000 -1.000000
v 1.000000 1.000000 1.000000
v 1.000000 -1.000000 1.000000
v -1.000000 1.000000 -1.000000
v -1.000000 -1.000000 -1.000000
v -1.000000 1.000000 1.000000
v -1.000000 -1.000000 1.000000
vt 0.625000 0.500000
vt 0.875000 0.500000
vt 0.875000 0.750000
vt 0.625000 0.750000
vt 0.375000 0.750000
vt 0.625000 1.000000
vt 0.375000 1.000000
vt 0.375000 0.000000
vt 0.625000 0.000000
vt 0.625000 0.250000
vt 0.375000 0.250000
vt 0.125000 0.500000
vt 0.375000 0.500000
vt 0.125000 0.750000
vn 0.0000 1.0000 0.0000
vn 0.0000 0.0000 1.0000
vn -1.0000 0.0000 0.0000
vn 0.0000 -1.0000 0.0000
vn 1.0000 0.0000 0.0000
vn 0.0000 0.0000 -1.0000
usemtl Material
s off
f 1/1/1 5/2/1 7/3/1 3/4/1
f 4/5/2 3/4/2 7/6/2 8/7/2
f 8/8/3 7/9/3 5/10/3 6/11/3
f 6/12/4 2/13/4 4/5/4 8/14/4
f 2/13/5 1/1/5 3/4/5 4/5/5
f 6/11/6 5/10/6 1/1/6 2/13/6
o hammer
v 43.076694 69.742859 62.581387
v -17.398880 69.742859 131.373184
v -17.398880 69.742859 62.581387
v 43.076694 69.742859 131.373184
v 48.513439 15.665588 -26.372215
v 56.417915 26.399078 225.127792
v 48.513439 15.665588 225.127792
v 56.417915 26.399078 -26.372215
v 38.100273 7.343658 225.127792
v 38.100273 7.343658 -26.372215
v 25.888052 2.000427 225.127792
v 25.888052 2.000427 -26.372215
v 12.709020 0.000000 225.127792
v 12.709020 0.000000 -26.372215
v 43.076694 422.743378 131.373184
v -17.398880 422.743378 62.581387
v -17.398880 422.743378 131.373184
v 43.076694 422.743378 62.581387
v -33.015530 75.706024 -26.372215
v -37.872635 63.292450 225.127792
v -33.015530 75.706024 225.127792
v -37.872635 63.292450 -26.372215
v -25.111057 86.439514 225.127792
v -25.111057 86.439514 -26.372215
v -14.697888 94.761444 225.127792
v -14.697888 94.761444 -26.372215
v -2.485669 100.104706 225.127792
v -2.485669 100.104706 -26.372215
v 10.693363 102.105103 225.127792
v 10.693363 102.105103 -26.372215
v 23.941078 100.626373 225.127792
v 23.941078 100.626373 -26.372215
v 36.354664 95.769257 225.127792
v 36.354664 95.769257 -26.372215
v 47.088158 87.864807 225.127792
v 47.088158 87.864807 -26.372215
v 55.410084 77.451630 -26.372215
v 55.410084 77.451630 225.127792
v -0.538694 1.478729 225.127792
v -12.952279 6.335846 225.127792
v -23.685772 14.240295 225.127792
v -32.007702 24.653473 225.127792
v -37.350945 36.865692 225.127792
v 61.275017 38.812653 225.127792
v -39.351360 50.044708 225.127792
v 62.753746 52.060394 225.127792
v 60.753326 65.239410 225.127792
v 60.753326 65.239410 -26.372215
v 62.753746 52.060394 -26.372215
v 61.275017 38.812653 -26.372215
v -0.538694 1.478729 -26.372215
v -12.952279 6.335846 -26.372215
v -23.685772 14.240295 -26.372215
v -32.007702 24.653473 -26.372215
v -37.350945 36.865692 -26.372215
v -39.351360 50.044708 -26.372215
vn 0.0000 -1.0000 0.0000
vn 0.8052 -0.5930 0.0000
vn 0.6243 -0.7812 0.0000
vn 0.4008 -0.9161 0.0000
vn 0.1501 -0.9887 0.0000
vn 0.0000 1.0000 0.0000
vn 0.0000 0.0000 -1.0000
vn -0.9313 0.3644 0.0000
vn -0.8052 0.5930 0.0000
vn -0.6243 0.7812 0.0000
vn -0.4008 0.9161 0.0000
vn -0.1501 0.9887 0.0000
vn 0.1109 0.9938 0.0000
vn 0.3644 0.9313 0.0000
vn 0.5930 0.8052 0.0000
vn 0.7812 0.6243 0.0000
vn -0.0000 0.0000 1.0000
vn 0.9161 0.4008 0.0000
vn 0.9887 0.1501 0.0000
vn -1.0000 0.0000 0.0000
vn 0.9938 -0.1109 0.0000
vn 0.9313 -0.3644 0.0000
vn -0.1109 -0.9938 0.0000
vn -0.3644 -0.9313 0.0000
vn -0.5930 -0.8052 0.0000
vn -0.7812 -0.6243 0.0000
vn -0.9161 -0.4008 0.0000
vn -0.9887 -0.1501 0.0000
vn -0.9938 0.1109 0.0000
vn 1.0000 0.0000 0.0000
usemtl None
s off
f 9//7 10//7 11//7
f 10//7 9//7 12//7
f 13//8 14//8 15//8
f 14//8 13//8 16//8
f 13//9 17//9 18//9
f 17//9 13//9 15//9
f 18//10 19//10 20//10
f 19//10 18//10 17//10
f 20//11 21//11 22//11
f 21//11 20//11 19//11
f 23//12 24//12 25//12
f 24//12 23//12 26//12
f 24//13 9//13 11//13
f 9//13 24//13 26//13
f 27//14 28//14 29//14
f 28//14 27//14 30//14
f 31//15 27//15 29//15
f 27//15 31//15 32//15
f 33//16 32//16 31//16
f 32//16 33//16 34//16
f 35//17 34//17 33//17
f 34//17 35//17 36//17
f 37//18 36//18 35//18
f 36//18 37//18 38//18
f 39//19 38//19 37//19
f 38//19 39//19 40//19
f 41//20 40//20 39//20
f 40//20 41//20 42//20
f 43//21 42//21 41//21
f 42//21 43//21 44//21
f 45//22 43//22 46//22
f 43//22 45//22 44//22
f 19//23 47//23 21//23
f 47//23 19//23 48//23
f 48//23 19//23 17//23
f 48//23 17//23 49//23
f 49//23 17//23 15//23
f 49//23 15//23 50//23
f 50//23 15//23 14//23
f 50//23 14//23 51//23
f 51//23 14//23 52//23
f 51//23 52//23 53//23
f 53//23 52//23 54//23
f 53//23 54//23 28//23
f 28//23 54//23 55//23
f 28//23 55//23 29//23
f 29//23 55//23 46//23
f 29//23 46//23 31//23
f 31//23 46//23 43//23
f 31//23 43//23 33//23
f 33//23 43//23 41//23
f 33//23 41//23 35//23
f 35//23 41//23 39//23
f 35//23 39//23 37//23
f 56//24 46//24 55//24
f 46//24 56//24 45//24
f 57//25 55//25 54//25
f 55//25 57//25 56//25
f 24//26 10//26 25//26
f 10//26 24//26 11//26
f 58//27 54//27 52//27
f 54//27 58//27 57//27
f 16//28 52//28 14//28
f 52//28 16//28 58//28
f 22//29 47//29 59//29
f 47//29 22//29 21//29
f 59//30 48//30 60//30
f 48//30 59//30 47//30
f 60//31 49//31 61//31
f 49//31 60//31 48//31
f 62//32 49//32 50//32
f 49//32 62//32 61//32
f 63//33 50//33 51//33
f 50//33 63//33 62//33
f 64//34 51//34 53//34
f 51//34 64//34 63//34
f 30//35 53//35 28//35
f 53//35 30//35 64//35
f 23//23 10//23 12//23
f 10//23 23//23 25//23
f 59//13 20//13 22//13
f 20//13 59//13 60//13
f 20//13 60//13 18//13
f 18//13 60//13 61//13
f 18//13 61//13 13//13
f 13//13 61//13 62//13
f 13//13 62//13 16//13
f 16//13 62//13 63//13
f 16//13 63//13 58//13
f 58//13 63//13 64//13
f 58//13 64//13 57//13
f 57//13 64//13 30//13
f 57//13 30//13 56//13
f 56//13 30//13 27//13
f 56//13 27//13 45//13
f 45//13 27//13 32//13
f 45//13 32//13 44//13
f 44//13 32//13 34//13
f 44//13 34//13 42//13
f 42//13 34//13 36//13
f 42//13 36//13 40//13
f 40//13 36//13 38//13
f 9//36 23//36 12//36
f 23//36 9//36 26//36
